<svg width="945" height="945" viewBox="0 0 945 945" fill="none" xmlns="http://www.w3.org/2000/svg">
<rect width="945" height="945" rx="210" fill="#F4FEFF"/>
<path d="M290.979 606.68L643.356 403.235C681.333 381.309 729.894 394.321 751.819 432.298C773.745 470.274 760.734 518.835 722.757 540.761L370.379 744.206C332.403 766.132 283.842 753.12 261.916 715.143C239.99 677.167 253.002 628.606 290.979 606.68Z" fill="#70D0D7"/>
<path d="M370.376 197.7L725.159 402.534C763.136 424.46 776.147 473.021 754.222 510.997C732.296 548.974 683.735 561.986 645.758 540.06L290.976 335.226C252.999 313.3 239.988 264.739 261.913 226.763C283.839 188.786 332.4 175.774 370.376 197.7Z" fill="#9CEEF3"/>
<path d="M410.182 265.175V674.843C410.182 718.695 374.633 754.244 330.781 754.244C286.929 754.244 251.381 718.695 251.381 674.843V265.175C251.381 221.324 286.929 185.775 330.781 185.775C374.633 185.775 410.182 221.324 410.182 265.175Z" fill="#7CE0E7"/>
<path d="M290.77 606.545L440.86 519.89C478.837 497.964 527.397 510.976 549.323 548.952C571.249 586.929 558.237 635.49 520.261 657.415L370.17 744.07C332.193 765.996 283.633 752.984 261.707 715.008C239.781 677.031 252.793 628.47 290.77 606.545Z" fill="#70D0D7"/>
</svg>
