<svg width="2378" height="1328" viewBox="0 0 2378 1328" fill="none" xmlns="http://www.w3.org/2000/svg">
<path d="M632.967 55.4646C649.869 21.4841 684.55 0 722.502 0H2216.57C2290.82 0 2339.17 78.0576 2306.11 144.535L1745.03 1272.54C1728.13 1306.52 1693.45 1328 1655.5 1328H161.428C87.1808 1328 38.8264 1249.94 71.8928 1183.46L632.967 55.4646Z" fill="url(#paint0_linear_301_12)"/>
<path d="M1030.7 520.463C1047.6 486.483 1082.28 465 1120.23 465H1986.57C2060.82 465 2109.17 543.059 2076.1 609.537L1746.31 1272.54C1729.41 1306.52 1694.73 1328 1656.77 1328H790.432C716.184 1328 667.829 1249.94 700.898 1183.46L1030.7 520.463Z" fill="url(#paint1_linear_301_12)"/>
<path d="M1361.66 852.247C1378.56 818.268 1413.24 796.785 1451.19 796.785H1822.38C1896.63 796.785 1944.98 874.845 1911.92 941.323L1747.16 1272.54C1730.25 1306.52 1695.57 1328 1657.62 1328H1286.43C1212.18 1328 1163.83 1249.94 1196.9 1183.46L1361.66 852.247Z" fill="url(#paint2_linear_301_12)"/>
<defs>
<linearGradient id="paint0_linear_301_12" x1="2291.5" y1="61.5" x2="83.9141" y2="1277.34" gradientUnits="userSpaceOnUse">
<stop offset="0.326108" stop-color="#8EEAFE"/>
<stop offset="1" stop-color="#B8C7FF"/>
</linearGradient>
<linearGradient id="paint1_linear_301_12" x1="2064.08" y1="506.989" x2="714.479" y2="1284.46" gradientUnits="userSpaceOnUse">
<stop offset="0.370269" stop-color="#FFF2B0"/>
<stop offset="1" stop-color="#FFBDE5"/>
</linearGradient>
<linearGradient id="paint2_linear_301_12" x1="1892.5" y1="847.5" x2="1229" y2="1294" gradientUnits="userSpaceOnUse">
<stop offset="0.309821" stop-color="white" stop-opacity="0.94"/>
<stop offset="1" stop-color="#EBE6D9" stop-opacity="0.85"/>
</linearGradient>
</defs>
</svg>
